<svg xmlns="http://www.w3.org/2000/svg" width="39.57mm" height="21.17mm" viewBox="0 0 112.18 60.02"><defs><style>.cls-1{fill:#a73089;stroke:#a73089;}.cls-1,.cls-2,.cls-6,.cls-7,.cls-8{stroke-miterlimit:10;}.cls-1,.cls-7{stroke-width:0.02px;}.cls-2,.cls-5{fill:#f3912a;}.cls-2{stroke:#f3912a;}.cls-2,.cls-6,.cls-8{stroke-width:0.01px;}.cls-3{fill:#ee7aaa;}.cls-4{fill:#e7205f;}.cls-6{fill:#fcc111;stroke:#fcc111;}.cls-7{fill:#d44c95;stroke:#d44c95;}.cls-8{fill:#f7a82d;stroke:#f7a82d;}.cls-9{fill:#fff;}</style></defs><title>Asset 1</title><g id="Layer_2" data-name="Layer 2"><g id="Layer_1-2" data-name="Layer 1"><path class="cls-1" d="M77.48,3.45a25,25,0,0,0-33.91,8.35c5.87,3.65,12.07,7,19.08,8.07A25.32,25.32,0,0,1,77.48,3.45Z"/><path class="cls-2" d="M88.93,31.69c2.11.27,4.3.54,6.6.79,6.11.68,11.14-5,11.14-11.14a11.14,11.14,0,0,0-16.28-9.88l-.86.46q-1.25.88-2.46,1.66a25.09,25.09,0,0,1,1.87,18.1Z"/><path class="cls-3" d="M62.64,19.88a25.27,25.27,0,0,0-1,6.89c-4.81-8.32-13.78-11.27-20.81-9a25.15,25.15,0,0,0-.36,13.08c12.06-5.78,24.42-2.28,48.45.79a25.09,25.09,0,0,0-1.87-18.1C77.73,19.56,69.76,20.93,62.64,19.88Z"/><path class="cls-4" d="M31.87,4.64A21.84,21.84,0,0,0,2.63,13.27a21.56,21.56,0,0,0,8.64,29.25,14.63,14.63,0,0,0,9.07,1.85c3.93-.44,6.7-2.56,9.21-5.54.39-.46,1.28-1.26,1.73-1.67l0,0a11.93,11.93,0,0,1-.45-2.58c-.36-9.21,4.15-14.81,10-16.74a24.89,24.89,0,0,1,2.72-6C39.57,9.32,35.72,6.72,31.87,4.64Z"/><path class="cls-5" d="M39.78,25a25,25,0,0,1,1.06-7.21c-5.86,1.93-10.37,7.53-10,16.74a12,12,0,0,0,.45,2.58,40.83,40.83,0,0,1,9.19-6.24A25.08,25.08,0,0,1,39.78,25Z"/><path class="cls-6" d="M86.91,1.63a25.19,25.19,0,0,0-9.44,1.82,25.13,25.13,0,0,1,9.58,10.13q1.21-.78,2.46-1.66l.86-.46a11.14,11.14,0,0,1,16.28,9.88c0,6.15-5,11.82-11.14,11.14-2.29-.26-4.49-.52-6.6-.79a25,25,0,0,1-48.45-.79,40.83,40.83,0,0,0-9.19,6.24C38.56,51.12,54.46,60,70.74,60A45.76,45.76,0,0,0,107,42.2l.14-.18A25.26,25.26,0,0,0,86.91,1.63Z"/><path class="cls-7" d="M61.65,26.77a25.27,25.27,0,0,1,1-6.89c-7-1-13.2-4.42-19.08-8.07a24.89,24.89,0,0,0-2.72,6C47.87,15.49,56.84,18.45,61.65,26.77Z"/><path class="cls-8" d="M40.48,30.9a25,25,0,0,0,48.45.79C64.89,28.61,52.54,25.12,40.48,30.9Z"/><path class="cls-8" d="M62.64,19.88c7.12,1.05,15.09-.32,24.42-6.29A25.13,25.13,0,0,0,77.48,3.45,25.32,25.32,0,0,0,62.64,19.88Z"/><polygon class="cls-9" points="30.83 34.56 22.49 15.08 18.75 15.08 29.41 39.07 32.26 39.07 42.88 15.08 39.15 15.08 30.83 34.56"/><path class="cls-9" d="M97.06,15.08H94.21l-10.62,24h3.74L90,32.86a15.24,15.24,0,0,0,11.35,0l2.57,6,.09.21h3.74Zm3,14.94a12.14,12.14,0,0,1-8.92,0l4.45-10.43Z"/><rect class="cls-9" x="49.31" y="15.08" width="3.23" height="23.99"/><path class="cls-9" d="M68.69,15.08H60.75v24h7.94c7.21,0,12.06-4.82,12.06-12S75.91,15.08,68.69,15.08Zm0,21.09H64.05V18h4.64c5.24,0,8.76,3.65,8.76,9.09S73.93,36.16,68.69,36.16Z"/></g></g></svg>